<svg id="Layer_1" enable-background="new 0 0 24 24" viewBox="0 0 24 24" xmlns="http://www.w3.org/2000/svg" xmlns:xlink="http://www.w3.org/1999/xlink"><linearGradient id="SVGID_1_" gradientUnits="userSpaceOnUse" x1="-.205" x2="24.205" y1="6.309" y2="17.691"><stop offset="0" stop-color="#fff" stop-opacity=".2"/><stop offset="1" stop-color="#fff" stop-opacity="0"/></linearGradient><g><g><path d="m23 4.5c0-1.9296875-1.5703125-3.5-3.5-3.5-1.3691406 0-2.5908203.7988281-3.1601563 2.0253906-.1406249-.0151367-.2861328-.0253906-.4355468-.0253906-1.3613281 0-2.6416016.5302734-3.6035156 1.4926758l-5.0286866 5.0282593c.0587158.0877075.1263428.1703491.2025146.2466431l2.232422 2.2324218 4.5253906-4.5253906c.3017578-.3017578.7197265-.4746094 1.1464844-.4746094.8935546 0 1.6210937.7270508 1.6210937 1.6210938 0 .3250732-.0952759.6356201-.2719727.8997192l2.4794312 2.479126.300354-.3002319c.9619141-.9628907 1.4921875-2.2426758 1.4921875-3.6035157 0-.1494141-.0097656-.2954102-.0253906-.4360352 1.2265625-.5683593 2.0253906-1.7905273 2.0253906-3.1601562z" fill="#fcb415"/></g><path d="m12.3007813 4.7426758c.961914-.9624024 2.2421875-1.4926758 3.6035156-1.4926758.1494141 0 .2949219.0102539.4355469.0253906.5693359-1.2265625 1.7910156-2.0253906 3.1601562-2.0253906 1.8939209 0 3.4327393 1.5150146 3.4894409 3.3954468.0020752-.0488281.0105591-.0961914.0105591-.1454468 0-1.9296875-1.5703125-3.5-3.5-3.5-1.3691406 0-2.5908203.7988281-3.1601563 2.0253906-.1406249-.0151367-.2861328-.0253906-.4355468-.0253906-1.3613281 0-2.6416016.5302734-3.6035156 1.4926758l-5.0286866 5.0282593c.0326538.0488281.074585.0917969.1127319.1372681z" fill="#fff" opacity=".2"/><g><path d="m4.5 1c-1.9296875 0-3.5 1.5703125-3.5 3.5 0 1.3691406.7988281 2.5908203 2.0253906 3.1601563-.0151367.140625-.0253906.2861328-.0253906.4355468 0 1.3613281.5302734 2.6416016 1.4926758 3.6035156l5.0282593 5.0286865c.0877075-.0587158.1703491-.1263428.2466431-.2025146l2.2324218-2.2324218-4.5253906-4.5253907c-.3017578-.3017578-.4746094-.7197265-.4746094-1.1464843 0-.8935547.7270508-1.6210938 1.6210938-1.6210938.3250732 0 .6356201.0952759.8997192.2719727l2.479126-2.4794312-.3002319-.300354c-.9628907-.9619141-2.2426758-1.4921875-3.6035157-1.4921875-.1494141 0-.2954101.0097656-.4360351.0253906-.5683594-1.2265625-1.7905274-2.0253906-3.1601563-2.0253906z" fill="#68b345"/></g><path d="m4.5 1.25c1.3696289 0 2.5917969.7988281 3.1601563 2.0253906.140625-.015625.286621-.0253906.4360351-.0253906 1.3608398 0 2.640625.5302734 3.6035156 1.4921875l.175293.175354.124939-.125-.3002319-.300354c-.9628907-.9619141-2.2426758-1.4921875-3.6035157-1.4921875-.1494141 0-.2954101.0097656-.4360351.0253906-.5683594-1.2265625-1.7905274-2.0253906-3.1601563-2.0253906-1.9296875 0-3.5 1.5703125-3.5 3.5 0 .0492554.0084839.0966187.0105591.1454468.0567016-1.8803101 1.595581-3.3954468 3.4894409-3.3954468z" fill="#fff" opacity=".2"/><g><path d="m1 19.5c0 1.9296875 1.5703125 3.5 3.5 3.5 1.3691406 0 2.5908203-.7988281 3.1601563-2.0253906.140625.0151367.2861328.0253906.4355468.0253906 1.3613281 0 2.6416016-.5302734 3.6035156-1.4926758l5.0286865-5.0282593c-.0587158-.0877075-.1263428-.1703491-.2025146-.2466431l-2.2324218-2.2324218-4.5253906 4.5253906c-.3017579.3017578-.7197266.4746094-1.1464844.4746094-.8935547 0-1.6210938-.7270508-1.6210938-1.6210937 0-.3250732.0952759-.6356201.2719727-.8997192l-2.4794312-2.479126-.300354.3002319c-.9619141.9628906-1.4921875 2.2426758-1.4921875 3.6035156 0 .1494141.0097656.2954102.0253906.4360352-1.2265625.5683593-2.0253906 1.7905273-2.0253906 3.1601562z" fill="#0a99d6"/></g><path d="m11.6992188 19.2573242c-.9619141.9624024-2.2421875 1.4926758-3.6035157 1.4926758-.1494141 0-.2949219-.0102539-.4355469-.0253906-.5693359 1.2265625-1.7910156 2.0253906-3.1601562 2.0253906-1.8939209 0-3.4327393-1.5150146-3.4894409-3.3954468-.0020752.0488281-.0105591.0961914-.0105591.1454468 0 1.9296875 1.5703125 3.5 3.5 3.5 1.3691406 0 2.5908203-.7988281 3.1601563-2.0253906.140625.0151367.2861328.0253906.4355468.0253906 1.3613281 0 2.6416016-.5302734 3.6035156-1.4926758l5.0286865-5.0282593c-.0326538-.0488281-.074585-.0917969-.1127319-.1372681z" fill="#010101" opacity=".1"/><g><path d="m19.5 23c1.9296875 0 3.5-1.5703125 3.5-3.5 0-1.3691406-.7988281-2.5908203-2.0253906-3.1601563.0151367-.1406249.0253906-.2861328.0253906-.4355468 0-1.3613281-.5302734-2.6416016-1.4926758-3.6035156l-5.0282593-5.0286865c-.0877075.0587158-.1703491.1263428-.2466431.2025146l-2.2324218 2.2324219 4.5253906 4.5253906c.3017578.3017578.4746094.7197265.4746094 1.1464844 0 .8935546-.7270508 1.6210937-1.6210937 1.6210937-.3250732 0-.6356201-.0952759-.8997192-.2719727l-2.479126 2.4794312.3002319.300354c.9628906.9619141 2.2426758 1.4921875 3.6035156 1.4921875.1494141 0 .2954102-.0097656.4360352-.0253906.5683593 1.2265625 1.7905273 2.0253906 3.1601562 2.0253906z" fill="#ee3325"/></g><path d="m19.5 22.75c-1.3696289 0-2.5917969-.7988281-3.1601563-2.0253906-.1406249.015625-.286621.0253906-.4360351.0253906-1.3608398 0-2.640625-.5302734-3.6035156-1.4921875l-.175293-.175354-.124939.125.3002319.300354c.9628907.9619141 2.2426759 1.4921875 3.6035157 1.4921875.1494141 0 .2954102-.0097656.4360352-.0253906.5683593 1.2265625 1.7905273 2.0253906 3.1601562 2.0253906 1.9296875 0 3.5-1.5703125 3.5-3.5 0-.0492554-.0084839-.0966187-.0105591-.1454468-.0567016 1.8803101-1.595581 3.3954468-3.4894409 3.3954468z" fill="#010101" opacity=".1"/><path d="m20.9746094 16.3398438c.0151367-.140625.0253906-.2861329.0253906-.4355469 0-1.3613281-.5302734-2.6416016-1.4926758-3.6035156l-.300293-.300293.3007813-.3007813c.9619141-.9628906 1.4921875-2.2426757 1.4921875-3.6035156 0-.1494141-.0097656-.2954102-.0253906-.4360352 1.2265625-.5683593 2.0253906-1.7905273 2.0253906-3.1601562 0-1.9296875-1.5703125-3.5-3.5-3.5-1.3691406 0-2.5908203.7988281-3.1601563 2.0253906-.1406249-.0151367-.2861328-.0253906-.4355468-.0253906-1.3613281 0-2.6416016.5302734-3.6035156 1.4926758l-.300293.300293-.3007813-.3007813c-.9628906-.9619141-2.2426757-1.4921875-3.6035156-1.4921875-.1494141 0-.2954101.0097656-.4360351.0253906-.5683594-1.2265625-1.7905274-2.0253906-3.1601563-2.0253906-1.9296875 0-3.5 1.5703125-3.5 3.5 0 1.3691406.7988281 2.5908203 2.0253906 3.1601563-.0151367.140625-.0253906.2861328-.0253906.4355468 0 1.3613281.5302734 2.6416016 1.4926758 3.6035156l.300293.300354-.3007813.3007203c-.9619141.9628906-1.4921875 2.2426758-1.4921875 3.6035156 0 .1494141.0097656.2954102.0253906.4360352-1.2265625.5683593-2.0253906 1.7905273-2.0253906 3.1601562 0 1.9296875 1.5703125 3.5 3.5 3.5 1.3691406 0 2.5908203-.7988281 3.1601563-2.0253906.140625.0151367.2861328.0253906.4355468.0253906 1.3613281 0 2.6416016-.5302734 3.6035156-1.4926758l.300354-.300293.3007202.3007813c.9628907.9619141 2.2426759 1.4921875 3.6035157 1.4921875.1494141 0 .2954102-.0097656.4360352-.0253906.5683593 1.2265625 1.7905273 2.0253906 3.1601562 2.0253906 1.9296875 0 3.5-1.5703125 3.5-3.5 0-1.3691406-.7988281-2.5908203-2.0253906-3.1601562zm-12.3535156.6601562c-.8935547 0-1.6210938-.7270508-1.6210938-1.6210937 0-.3250732.0952759-.6356201.2719727-.8997192l-.0006714-.0010986 2.2490234 2.2492065c-.2647095.175537-.5794678.272705-.8992309.272705zm-1.3483887-7.4796753c-.1755982-.2647095-.2727051-.5794678-.2727051-.8992309 0-.8935547.7270508-1.6210938 1.6210938-1.6210938.3250732 0 .6356201.0952759.8997192.2719727l.0007324-.0002441zm4.7272949 4.7726441-2.2929687-2.2929688 2.2929687-2.2929687 2.2929688 2.2929687zm3.3789063 2.7070312c-.3250732 0-.6356201-.0952759-.8997192-.2719727l-.00177.0012817 2.2498779-2.2496338c.175537.2647096.272705.5794679.272705.8992311 0 .8935546-.7270508 1.6210937-1.6210937 1.6210937zm1.349121-7.479187.0004272.0008545-2.2487793-2.2489624c.2647096-.1755982.5794679-.2727051.8992311-.2727051.8935546 0 1.6210937.7270508 1.6210937 1.6210938 0 .3250732-.0952759.6356201-.2719727.8997192z" fill="url(#SVGID_1_)"/></g><g/><g/><g/><g/><g/><g/><g/><g/><g/><g/><g/><g/><g/><g/><g/></svg>