<svg viewBox="0 0 512 512" xmlns="http://www.w3.org/2000/svg"><g id="fill"><g id="_50-SEO_copy" data-name="50-SEO copy"><path d="m412 161a95 95 0 1 0 95 95 95 95 0 0 0 -95-95zm0 153.46a58.46 58.46 0 1 1 58.46-58.46 58.52 58.52 0 0 1 -58.46 58.46z" fill="#ea4235"/><path d="m114.663 260.069a73.083 73.083 0 0 0 -15.227-10.584l-42.73-22.469a36.621 36.621 0 0 1 -7.624-5.243c-3.591-3.273 3.779-18.951 15.823-20.773 7.637-1.15 26.714-1.565 38.974 19.438l31.121-21.008c-16.433-28.152-44.556-42.19-75.206-37.56-25.534 3.857-45.655 19.82-51.261 40.668-4.68 17.4 1.445 35.408 16.8 49.393a73.178 73.178 0 0 0 15.226 10.584l42.741 22.47a36.652 36.652 0 0 1 7.621 5.241c3.586 3.274-3.782 18.952-15.821 20.774-7.634 1.152-26.714 1.565-38.974-19.438l-31.126 21.008c13.517 23.155 34.938 36.764 59.177 38.287a75.523 75.523 0 0 0 16.028-.728c25.535-3.857 45.655-19.819 51.261-40.667 4.68-17.405-1.444-35.408-16.803-49.393z" fill="#4385f5"/><path d="m219 198.688v35h66v40h-66v35h66v40h-110v-190h110v40z" fill="#fabc05"/></g></g></svg>